<svg width="23" height="19" viewBox="0 0 23 19" fill="none" xmlns="http://www.w3.org/2000/svg">
<path fill-rule="evenodd" clip-rule="evenodd" d="M21.5033 18.5125H17.6337C17.4633 18.5125 17.2999 18.4422 17.1794 18.3169L11.462 12.3725L5.68666 18.3774C5.56613 18.5025 5.40268 18.573 5.23225 18.573H1.36266C0.790143 18.573 0.503432 17.8533 0.908254 17.4325L9.25318 8.75601C9.658 8.33512 9.37138 7.61546 8.79887 7.61546H6.7928C6.62237 7.61546 6.45892 7.54519 6.33841 7.41986L0.908254 1.77403C0.503432 1.35312 0.790143 0.633445 1.36266 0.633445H5.23225C5.40268 0.633445 5.56613 0.703833 5.68666 0.829143L11.404 6.77349L17.1794 0.768695C17.2999 0.643385 17.4633 0.572998 17.6339 0.572998H21.5033C22.0759 0.572998 22.3627 1.29269 21.9578 1.71358L13.6129 10.39C13.208 10.8109 13.4947 11.5305 14.0672 11.5305H16.0731C16.2437 11.5305 16.4071 11.6008 16.5276 11.7261L21.9578 17.3719C22.3627 17.7928 22.0759 18.5125 21.5033 18.5125ZM11.398 10.4439C11.8815 10.4439 12.2733 10.0379 12.2733 9.53674C12.2733 9.03561 11.8815 8.62937 11.398 8.62937C10.9145 8.62937 10.5226 9.03561 10.5226 9.53674C10.5226 10.0379 10.9145 10.4439 11.398 10.4439Z" fill="#222222"/>
</svg>
